<svg width="512" height="512" viewBox="0 0 512 512" fill="none" xmlns="http://www.w3.org/2000/svg">
<rect width="512" height="512" rx="80" fill="white"/>
<path d="M68 130C68 96.8629 110.363 62.5 143.5 62.5L334 70C367.137 70 394 96.8629 394 130V412C394 445.137 367.137 472 334 472H128C94.8629 472 68 445.137 68 412V130Z" fill="#ECDECA"/>
<path fill-rule="evenodd" clip-rule="evenodd" d="M197.5 80H334C361.614 80 384 102.386 384 130V412C384 439.614 361.614 462 334 462H128C100.386 462 78 439.614 78 412V130C78 117.275 82.7535 105.66 90.5817 96.8349C93.7536 93.2589 97.4302 90.1408 101.5 87.5922L95.5866 79.5C91.116 82.3754 87.052 85.8283 83.5 89.7532C73.8672 100.397 68 114.514 68 130V412C68 445.137 94.8629 472 128 472H334C367.137 472 394 445.137 394 412V130C394 96.8629 367.137 70 334 70H197.5V80Z" fill="#FE9535"/>
<rect x="132" y="36" width="316" height="392" rx="55" fill="white" stroke="#FE9535" stroke-width="10"/>
<circle cx="414" cy="421" r="60" fill="white" stroke="#FE9535" stroke-width="10"/>
<rect x="410.071" y="447.25" width="10" height="82.7219" rx="5" transform="rotate(-135 410.071 447.25)" fill="#FE9535"/>
<rect x="92.4907" y="93.6179" width="10" height="93.3579" rx="5" transform="rotate(-123.303 92.4907 93.6179)" fill="#FE9535"/>
<rect x="379" y="417.071" width="10" height="43.2764" rx="5" transform="rotate(-45 379 417.071)" fill="#FE9535"/>
<path d="M384.051 226.26C394.402 226.95 407.513 236.611 413.378 244.546C410.963 243.511 405.615 243.511 400.785 243.511C409.065 250.239 414.068 261.969 414.068 270.94C411.825 267.662 405.443 262.487 399.405 260.762C407.168 272.32 406.823 296.644 399.405 304.579C398.025 297.851 396.127 291.641 389.572 285.603" stroke="#4B2B2A" stroke-width="10" stroke-miterlimit="1" stroke-linecap="round" stroke-linejoin="round"/>
<path d="M196.017 226.26C185.666 226.95 172.555 236.611 166.69 244.546C169.105 243.511 174.453 243.511 179.283 243.511C171.003 250.239 166 261.969 166 270.94C168.243 267.662 174.625 262.487 180.663 260.762C172.9 272.32 173.245 296.644 180.663 304.579C182.043 297.851 183.941 291.641 190.496 285.603" stroke="#4B2B2A" stroke-width="10" stroke-miterlimit="1" stroke-linecap="round" stroke-linejoin="round"/>
<path d="M250.702 252.481L246.217 248.169M241.904 262.487L233.969 260.072" stroke="#4B2B2A" stroke-width="10" stroke-linecap="round"/>
<path d="M337.819 262.487L345.064 260.417" stroke="#4B2B2A" stroke-width="10" stroke-linecap="round"/>
<path d="M329.366 252.481L333.334 248.859" stroke="#4B2B2A" stroke-width="10" stroke-linecap="round"/>
<path d="M360.935 158.982C364.598 150.221 370.808 147.251 377.496 147.251" stroke="#4B2B2A" stroke-width="10" stroke-linecap="round"/>
<path d="M218.788 158.982C215.354 150.221 209.532 147.251 203.262 147.251" stroke="#4B2B2A" stroke-width="10" stroke-linecap="round"/>
<path d="M349.55 148.706C353.219 137.829 363.482 130 375.567 130C390.733 130 403.027 142.328 403.027 157.535C403.027 170.845 393.608 181.95 381.089 184.513" stroke="#4B2B2A" stroke-width="10"/>
<path d="M229.828 148.706C226.159 137.829 215.896 130 203.81 130C188.645 130 176.351 142.328 176.351 157.535C176.351 170.845 185.769 181.95 198.289 184.513" stroke="#4B2B2A" stroke-width="10"/>
<path d="M188.771 226.088C191.263 173.372 235.249 132.415 289.861 132.415C344.295 132.415 388.748 174.133 391.506 226.605" stroke="#4B2B2A" stroke-width="10" stroke-linecap="round"/>
<path d="M316.428 252.481C316.428 263.724 304.534 272.837 289.861 272.837C275.189 272.837 263.295 263.724 263.295 252.481C263.295 241.27 271.231 232.125 282.961 232.125H296.762C309.355 232.125 316.428 241.261 316.428 252.481Z" fill="#4B2B2A"/>
<circle cx="232.588" cy="213.839" r="16.5609" fill="#4B2B2A"/>
<circle cx="348.169" cy="213.839" r="16.5609" fill="#4B2B2A"/>
<circle cx="227.413" cy="210.734" r="5.17527" fill="white"/>
<circle cx="342.994" cy="210.734" r="5.17527" fill="white"/>
<path d="M247.198 283.027C245.341 280.983 242.179 280.832 240.135 282.689C238.091 284.546 237.94 287.708 239.797 289.752L247.198 283.027ZM276.239 256.639C284.914 266.186 284.448 279.468 276.793 286.423L283.518 293.824C295.989 282.492 295.33 262.78 283.64 249.914L276.239 256.639ZM276.793 286.423C269.138 293.379 255.873 292.574 247.198 283.027L239.797 289.752C251.487 302.617 271.046 305.156 283.518 293.824L276.793 286.423Z" fill="#4B2B2A"/>
<path d="M331.379 283.027C333.236 280.983 336.398 280.832 338.442 282.689C340.486 284.546 340.637 287.708 338.78 289.752L331.379 283.027ZM302.338 256.639C293.664 266.186 294.129 279.468 301.784 286.423L295.06 293.824C282.588 282.492 283.247 262.78 294.937 249.914L302.338 256.639ZM301.784 286.423C309.439 293.379 322.705 292.574 331.379 283.027L338.78 289.752C327.09 302.617 307.531 305.156 295.06 293.824L301.784 286.423Z" fill="#4B2B2A"/>
<path d="M289.861 303.889C289.861 308.462 286.309 312.17 281.926 312.17C277.543 312.17 273.991 308.462 273.991 303.889V293.194M289.861 303.889C289.861 308.462 293.414 312.17 297.797 312.17C302.18 312.17 305.732 308.462 305.732 303.889V294.229M289.861 303.889V278.185" stroke="#4B2B2A" stroke-width="10"/>
<path d="M392.159 286.764C367.48 315.617 330.806 333.906 289.861 333.906C249.579 333.906 213.431 316.205 188.771 288.156" stroke="#4B2B2A" stroke-width="10"/>
</svg>
